<?xml version="1.0" standalone="no"?><!DOCTYPE svg PUBLIC "-//W3C//DTD SVG 1.1//EN" "http://www.w3.org/Graphics/SVG/1.1/DTD/svg11.dtd"><svg t="1531470722181" class="icon" style="" viewBox="0 0 1024 1024" version="1.1" xmlns="http://www.w3.org/2000/svg" p-id="2616" xmlns:xlink="http://www.w3.org/1999/xlink" width="200" height="200"><defs><style type="text/css"></style></defs><path d="M481.477846 709.501166 481.477846 444.466907c0-17.165961 13.696953-31.081902 30.595832-31.081902 16.888645 0 30.3134 8.549723 30.3134 32.168654s0.274246 263.947508 0.274246 263.947508c0 17.149589-13.697977 31.081902-30.586622 31.081902C495.173776 740.584092 481.477846 726.651778 481.477846 709.501166L481.477846 709.501166z" p-id="2617"></path><path d="M548.44505 323.006602c0 20.446681-16.311501 37.028335-36.44505 37.028335-20.12741 0-36.446074-16.58063-36.446074-37.028335 0-20.449751 16.318664-37.031405 36.446074-37.031405C532.133549 285.974174 548.44505 302.55685 548.44505 323.006602z" p-id="2618"></path><path d="M511.564072 959.919543c-60.457954 0-119.120005-11.845793-174.358073-35.20992-53.340859-22.561855-101.240799-54.854329-142.368498-95.983051-41.127699-41.126676-73.421196-89.027639-95.982028-142.368498-23.364127-55.237045-35.20992-113.901143-35.20992-174.358073s11.846816-119.120005 35.20992-174.358073c22.560832-53.340859 54.854329-101.240799 95.982028-142.368498 41.128723-41.127699 89.027639-73.421196 142.368498-95.982028 55.238069-23.364127 113.901143-35.20992 174.358073-35.20992 60.457954 0 119.120005 11.846816 174.359097 35.20992 53.340859 22.560832 101.240799 54.854329 142.369521 95.982028 41.126676 41.127699 73.420173 89.027639 95.982028 142.368498 23.364127 55.238069 35.20992 113.901143 35.20992 174.358073s-11.845793 119.121028-35.20992 174.358073c-22.561855 53.340859-54.854329 101.241822-95.982028 142.368498-41.128723 41.127699-89.028663 73.42222-142.369521 95.983051C630.684076 948.07375 572.022025 959.919543 511.564072 959.919543zM511.564072 114.221438c-219.335451 0-397.777539 178.442088-397.777539 397.777539 0 219.335451 178.442088 397.777539 397.777539 397.777539 219.336474 0 397.778562-178.442088 397.778562-397.777539C909.342634 292.664549 730.900545 114.221438 511.564072 114.221438z" p-id="2619"></path></svg>