<?xml version="1.0" standalone="no"?><!DOCTYPE svg PUBLIC "-//W3C//DTD SVG 1.1//EN" "http://www.w3.org/Graphics/SVG/1.1/DTD/svg11.dtd"><svg t="1530341333533" class="icon" style="" viewBox="0 0 1024 1024" version="1.1" xmlns="http://www.w3.org/2000/svg" p-id="2823" xmlns:xlink="http://www.w3.org/1999/xlink" width="200" height="200"><defs><style type="text/css"></style></defs><path d="M594.089623 68.470441c-15.912411-6.580882-33.207309-2.719948-45.369304 9.460466L339.53095 288.667515 235.458663 288.667515c-23.49511 0-42.538839 18.643616-42.538839 42.142819L192.919824 693.241854c0 23.49818 19.043728 42.142819 42.538839 42.142819l104.072287 0 210.193233 210.736609c8.143471 8.154727 19.033495 12.588713 30.116925 12.588713 5.473665 0 8.993838-1.00284 14.249539-3.179412 15.908318-6.585999 24.273846-22.056342 24.273846-39.269375L618.364493 107.790982C618.36347 90.577948 609.997941 75.05644 594.089623 68.470441zM533.275559 813.425074 385.275807 662.97962c-7.982812-7.994068-16.805758-12.684904-28.102035-12.684904l-79.165014 0 0-276.538267 79.165014 0c11.295254 0 20.119223-4.690836 28.102035-12.684904l147.999752-150.445454L533.275559 813.425074zM759.790526 692.192965c-8.403391 9.379625-20.026102 14.153348-31.702026 14.153348-10.111289 0-20.2543-3.583618-28.377304-10.860349-17.501606-15.687284-18.972097-42.587957-3.292999-60.086493 109.297288-121.970936 4.517897-241.702877 0-246.741637-15.679098-17.499559-14.208607-44.400233 3.292999-60.081377 17.48728-15.691377 44.404326-14.21577 60.074214 3.287883C815.626205 394.174478 887.488907 549.679158 759.790526 692.192965z" p-id="2824"></path></svg>