<?xml version="1.0" standalone="no"?><!DOCTYPE svg PUBLIC "-//W3C//DTD SVG 1.1//EN" "http://www.w3.org/Graphics/SVG/1.1/DTD/svg11.dtd"><svg t="1534141827797" class="icon" style="" viewBox="0 0 1024 1024" version="1.1" xmlns="http://www.w3.org/2000/svg" p-id="4432" xmlns:xlink="http://www.w3.org/1999/xlink" width="200" height="200"><defs><style type="text/css"></style></defs><path d="M487.936 644.096l24.576 12.288c17.92 9.216 25.088 31.232 16.384 49.152l-132.608 262.656c-9.216 17.92-31.232 25.088-49.152 16.384l-98.304-49.664c-17.92-9.216-25.088-31.232-16.384-49.152l132.608-262.656c9.216-17.92 31.232-25.088 49.152-16.384l16.384 8.192 7.68 4.096 37.376-73.728c4.608-9.216-1.024-15.872-9.728-20.48l-4.096-2.048-299.52-150.528c-17.92-9.216-23.552-34.816-14.336-53.248l-2.048 4.096 114.176-226.304c9.216-17.92 31.232-25.088 49.152-16.384l65.536 33.28 24.576-48.64c9.216-17.92 31.232-25.088 49.152-16.384l459.264 231.936c17.92 9.216 25.088 31.232 15.872 49.664l-82.432 163.84c-9.216 17.92-31.232 25.088-49.152 16.384L332.288 278.016c-17.92-9.216-25.088-31.232-16.384-49.152l32.768-65.536-32.256-16.384c-9.216-4.608-19.968-0.512-24.064 8.192l-81.92 162.816c-4.608 9.216-1.024 19.456 8.192 24.576l303.104 153.088c17.92 9.216 25.088 31.232 15.872 49.664M383.488 206.848c-10.752 20.992-10.752 42.496 0 48.128h0.512l395.264 199.68c10.752 5.632 28.16-6.656 38.912-28.16v-0.512l37.888-74.752c10.752-20.992 10.752-42.496 0-48.128h-0.512L460.8 103.424c-10.752-5.632-28.16 6.656-38.912 28.16v0.512l-38.4 74.752z m515.584 171.52l32.768 16.384c9.216 4.608 12.8 15.36 8.192 25.088l-10.24 20.48c-4.608 9.216-15.36 12.8-25.088 8.192l-32.768-16.384 27.136-53.76zM334.336 931.84c14.848 7.168 31.744 4.096 37.376-7.168l104.96-207.36c5.632-11.776-1.536-27.136-16.384-34.304l-35.84-17.92c-14.848-7.168-31.744-4.096-37.376 7.168l-104.96 207.36c-5.632 11.776 1.536 27.136 16.384 34.304l35.84 17.92z" fill="" p-id="4433"></path><path d="M283.5456 845.1584l18.9184-37.4784 110.15168 55.6032-18.91328 37.4784z" fill="" p-id="4434"></path></svg>