<?xml version="1.0" standalone="no"?><!DOCTYPE svg PUBLIC "-//W3C//DTD SVG 1.1//EN" "http://www.w3.org/Graphics/SVG/1.1/DTD/svg11.dtd"><svg t="1529497139913" class="icon" style="" viewBox="0 0 1171 1024" version="1.1" xmlns="http://www.w3.org/2000/svg" p-id="12561" xmlns:xlink="http://www.w3.org/1999/xlink" width="228.7109375" height="200"><defs><style type="text/css"></style></defs><path d="M1097.142857 950.857143 877.714286 768 877.714286 658.285714 1097.142857 512 1097.142857 950.857143 1097.142857 950.857143ZM694.857143 439.296C593.627429 439.296 511.597714 357.229714 511.597714 256 511.597714 154.770286 593.627429 72.740571 694.857143 72.740571 796.086857 72.740571 878.116571 154.770286 878.116571 256 878.116571 357.229714 796.086857 439.296 694.857143 439.296L694.857143 439.296ZM804.571429 877.714286C804.571429 918.089143 771.803429 950.857143 731.428571 950.857143L146.285714 950.857143C105.910857 950.857143 73.142857 918.089143 73.142857 877.714286L73.142857 585.142857C73.142857 544.768 105.910857 512 146.285714 512L731.428571 512C771.803429 512 804.571429 544.768 804.571429 585.142857L804.571429 877.714286 804.571429 877.714286ZM73.142857 292.571429C73.142857 211.785143 138.642286 146.285714 219.428571 146.285714 300.214857 146.285714 365.714286 211.785143 365.714286 292.571429 365.714286 373.357714 300.214857 438.857143 219.428571 438.857143 138.642286 438.857143 73.142857 373.357714 73.142857 292.571429L73.142857 292.571429ZM1097.142857 438.857143 877.714286 585.142857C877.714286 540.745143 857.526857 501.467429 826.294857 474.660571 900.608 429.824 950.857143 349.110857 950.857143 256 950.857143 114.614857 836.242286 0 694.857143 0 553.472 0 438.857143 114.614857 438.857143 256 438.857143 327.753143 468.553143 392.374857 516.059429 438.857143L381.915429 438.857143C416.914286 399.981714 438.857143 349.037714 438.857143 292.571429 438.857143 171.410286 340.589714 73.142857 219.428571 73.142857 98.267429 73.142857 0 171.410286 0 292.571429 0 358.729143 29.842286 417.28 76.141714 457.545143 30.976 482.413714 0 529.92 0 585.142857L0 877.714286C0 958.500571 65.499429 1024 146.285714 1024L731.428571 1024C812.214857 1024 877.714286 958.500571 877.714286 877.714286L877.714286 841.142857 1097.142857 1024C1137.517714 1024 1170.285714 991.232 1170.285714 950.857143L1170.285714 512C1170.285714 471.625143 1137.517714 438.857143 1097.142857 438.857143L1097.142857 438.857143Z" p-id="12562"></path></svg>