<?xml version="1.0" standalone="no"?><!DOCTYPE svg PUBLIC "-//W3C//DTD SVG 1.1//EN" "http://www.w3.org/Graphics/SVG/1.1/DTD/svg11.dtd"><svg t="1534141842097" class="icon" style="" viewBox="0 0 1024 1024" version="1.1" xmlns="http://www.w3.org/2000/svg" p-id="5101" xmlns:xlink="http://www.w3.org/1999/xlink" width="200" height="200"><defs><style type="text/css"></style></defs><path d="M128.2048 676.352c-1.8176 4.6592 8.5504 93.5168 36.3008 159.2064 1.8688 4.352 13.2608 22.1952 30.2592 20.5056 70.6048-6.9632 116.736-2.816 220.288 18.2272 67.4048 13.7216 150.0416 24.2432 178.9952 21.0688 86.656-9.5488 280.9344-151.1424 289.4592-177.8176 0 0-5.12-32.3584-111.232 12.0064-20.1728 8.448-44.3392 18.176-72.6272 31.0528-133.8368 60.928-226.9184 1.8688-286.208-38.8352 0 0-19.7632-29.184 22.4256-27.3408 0 0 189.9008 33.8176 223.36-43.4176 0 0 4.096-18.2016-21.7088-20.48 0 0-81.0496 4.4032-134.4512-18.816-80-34.816-144.1792-26.5216-199.168-3.584-72.32 50.8416-86.2208 61.2352-168.96 62.1824 0 0-4.9408 1.3568-6.7328 6.016zM549.3248 128a222.6432 222.6432 0 0 0-222.6432 222.6432 222.6432 222.6432 0 0 0 222.6688 222.6432 222.6432 222.6432 0 0 0 222.6432-222.6432A222.6432 222.6432 0 0 0 549.3504 128z m111.4112 211.8144h-89.088v44.5184h89.088v44.544h-89.088v44.5184h-44.5184v-44.544h-89.0368v-44.5184h89.0368v-44.544h-89.0368v-44.5184h56.32L439.296 244.6336l31.488-26.9568 78.592 78.0288 78.6176-79.8208 31.488 29.0816-55.1424 50.3296h56.4224v44.5184z" p-id="5102"></path></svg>