<?xml version="1.0" standalone="no"?><!DOCTYPE svg PUBLIC "-//W3C//DTD SVG 1.1//EN" "http://www.w3.org/Graphics/SVG/1.1/DTD/svg11.dtd"><svg t="1531471715276" class="icon" style="" viewBox="0 0 1024 1024" version="1.1" xmlns="http://www.w3.org/2000/svg" p-id="11495" xmlns:xlink="http://www.w3.org/1999/xlink" width="200" height="200"><defs><style type="text/css"></style></defs><path d="M399.04 893.568 438.336 574.72 285.248 574.72l339.712-444.288L585.664 449.28l153.088 0L399.04 893.568zM375.872 529.92l113.088 0-25.28 205.312 184.448-241.152L534.976 494.08l25.28-205.312L375.872 529.92z" p-id="11496"></path><path d="M512 108.8c222.336 0 403.2 180.864 403.2 403.2s-180.864 403.2-403.2 403.2S108.8 734.336 108.8 512 289.664 108.8 512 108.8M512 64C264.576 64 64 264.576 64 512c0 247.424 200.576 448 448 448 247.424 0 448-200.576 448-448C960 264.576 759.424 64 512 64L512 64z" p-id="11497"></path></svg>