<?xml version="1.0" standalone="no"?><!DOCTYPE svg PUBLIC "-//W3C//DTD SVG 1.1//EN" "http://www.w3.org/Graphics/SVG/1.1/DTD/svg11.dtd"><svg t="1529497175596" class="icon" style="" viewBox="0 0 1024 1024" version="1.1" xmlns="http://www.w3.org/2000/svg" p-id="13349" xmlns:xlink="http://www.w3.org/1999/xlink" width="200" height="200"><defs><style type="text/css"></style></defs><path d="M261.972006 1020.81493h-127.402799c-35.03577 0-63.7014-27.073095-63.7014-62.108865V63.7014c0-36.628305 27.073095-63.7014 63.7014-63.7014h127.402799c36.628305 0 63.7014 27.073095 63.7014 63.7014v891.819595c0 38.22084-27.073095 65.293935-63.7014 65.293935z m-127.402799-976.22395C121.828927 44.59098 113.866252 52.553655 113.866252 65.293935v891.819595c0 12.74028 7.962675 20.702955 20.702955 20.702955h127.402799c12.74028 0 20.702955-7.962675 20.702955-20.702955v-891.819595c0-12.74028-7.962675-20.702955-20.702955-20.702955h-127.402799z m442.724728 976.22395h-127.4028c-35.03577 0-63.7014-27.073095-63.701399-62.108865V278.693624c0-36.628305 27.073095-63.7014 63.701399-63.7014h127.4028c36.628305 0 63.7014 27.073095 63.701399 63.7014v680.012441c0 35.03577-30.258165 62.108865-63.701399 62.108865z m-127.4028-764.416796c-12.74028 0-20.702955 7.962675-20.702955 20.702955v680.012441c0 12.74028 7.962675 20.702955 20.702955 20.702955h127.4028c12.74028 0 20.702955-7.962675 20.702955-20.702955V278.693624c0-12.74028-7.962675-20.702955-20.702955-20.702955 0-1.592535-127.402799-1.592535-127.4028-1.592535z m439.539658 764.416796h-127.402799c-35.03577 0-63.7014-27.073095-63.7014-62.108865V490.500778c0-36.628305 27.073095-63.7014 63.7014-63.7014h127.402799c36.628305 0 63.7014 27.073095 63.7014 63.7014v466.612752c0 36.628305-28.66563 63.7014-63.7014 63.7014z m-127.402799-551.017107c-12.74028 0-20.702955 7.962675-20.702955 20.702955v466.612752c0 12.74028 7.962675 20.702955 20.702955 20.702955h127.402799c12.74028 0 20.702955-7.962675 20.702955-20.702955V490.500778c0-12.74028-7.962675-20.702955-20.702955-20.702955h-127.402799z" p-id="13350"></path></svg>