<?xml version="1.0" standalone="no"?><!DOCTYPE svg PUBLIC "-//W3C//DTD SVG 1.1//EN" "http://www.w3.org/Graphics/SVG/1.1/DTD/svg11.dtd"><svg t="1533371588672" class="icon" style="" viewBox="0 0 1024 1024" version="1.1" xmlns="http://www.w3.org/2000/svg" p-id="2729" xmlns:xlink="http://www.w3.org/1999/xlink" width="200" height="200"><defs><style type="text/css"></style></defs><path d="M834.998857 605.622857c-49.298286-28.818286-91.282286-43.154286-128.585143-43.154286-24.722286 0-46.372571 6.436571-62.317714 18.139429-26.770286 16.530286-41.984 25.014857-50.176 29.110857-2.048-1.755429-4.388571-3.803429-7.606857-6.436571l-4.096-3.803429c-14.628571-12.873143-38.473143-36.425143-71.68-69.046857l-9.947429-9.947429c-2.925714-2.925714-6.144-5.558857-9.654857-7.314285-7.021714-7.606857-23.259429-25.892571-61.293714-68.169143l-1.755429-1.755429c-10.532571-11.995429-16.676571-20.041143-20.333714-24.722285 2.925714-5.851429 8.777143-16.091429 20.626286-31.451429 24.137143-33.499429 45.202286-90.697143 5.266285-172.909714-16.384-30.573714-43.739429-71.094857-83.968-123.904l-4.681142-4.973715c-32.329143-38.180571-70.217143-57.490286-113.078858-57.490285-31.451429 0-64.365714 11.995429-101.376 36.425143l-5.266285 4.388571c-42.569143 27.648-70.217143 61.732571-82.505143 100.498286-23.259429 70.217143-7.314286 158.281143 48.420571 261.997714 58.514286 103.131429 127.414857 196.461714 204.946286 277.504 60.123429 61.732571 128 120.100571 201.435429 172.909714 98.304 72.850286 182.125714 108.105143 256.585142 108.105143 25.307429 0 44.909714-0.877714 59.245715-2.925714 18.139429-2.340571 38.473143-10.532571 62.025143-25.307429 22.674286-13.750857 45.494857-34.084571 68.461714-61.001143 62.902857-75.190857 62.025143-152.137143-2.340572-216.356571-25.014857-25.161143-61.147429-51.638857-106.349714-78.409143z m52.809143 247.515429c-17.554286 20.333714-34.377143 35.547429-50.468571 45.494857-20.041143 12.288-30.281143 14.628571-33.499429 15.213714-10.825143 1.462857-27.355429 2.340571-49.298286 2.340572-57.197714 0-128.877714-31.451429-213.138285-94.208-70.217143-50.761143-135.021714-106.057143-191.780572-164.717715-73.142857-76.361143-138.386286-164.717714-193.243428-261.997714C111.177143 310.564571 96.694857 242.395429 113.517714 191.634286c7.314286-23.259429 25.892571-44.617143 55.442286-63.195429l6.144-4.973714c22.381714-14.628571 42.276571-22.089143 57.490286-22.089143 20.626286 0 39.350857 10.532571 57.490285 32.036571l2.925715 3.218286c36.425143 47.835429 62.025143 85.430857 75.190857 110.153143 25.307429 52.224 12.580571 79.872 1.170286 95.378286-26.477714 35.254857-37.595429 59.245714-37.595429 80.164571 0 16.676571 9.069714 31.744 41.691429 69.632l2.925714 2.925714c61.44 69.046857 64.950857 72.850286 66.998857 74.898286l10.825143 10.825143h2.340571l1.755429 1.755429c34.377143 34.377143 58.953143 57.929143 73.142857 70.802285l4.096 3.803429c20.626286 18.139429 37.010286 29.403429 54.857143 29.403428 12.580571 0 28.525714-3.218286 94.793143-44.617142 19.309714-14.043429 61.732571-2.633143 112.493714 26.770285 39.936 23.259429 71.094857 46.372571 92.16 67.584 26.770286 27.794286 45.202286 60.416-2.048 117.028572z m0 0" p-id="2730"></path><path d="M900.534857 187.245714v244.882286l62.025143-1.170286V82.066286H614.107429V143.36l243.712 1.170286L592.457143 409.746286l42.861714 42.861714L900.534857 187.245714z m0 0" p-id="2731"></path></svg>