<?xml version="1.0" standalone="no"?><!DOCTYPE svg PUBLIC "-//W3C//DTD SVG 1.1//EN" "http://www.w3.org/Graphics/SVG/1.1/DTD/svg11.dtd"><svg t="1534142094782" class="icon" style="" viewBox="0 0 1024 1024" version="1.1" xmlns="http://www.w3.org/2000/svg" p-id="16624" xmlns:xlink="http://www.w3.org/1999/xlink" width="200" height="200"><defs><style type="text/css"></style></defs><path d="M893.28 610.752L1024 610.72v65.376h-87.168v261.44l0.032 65.376-65.408 0.032-697.184-0.064-65.376 0.032V676.096H0v-65.376h130.72v0.032h43.552v326.784h697.184V610.752h21.824zM43.584 480H1024v130.72h-65.376v-65.376H65.376v65.376H0V480h43.584z" p-id="16625"></path><path d="M224 544c0-159.072 128.928-288 288-288s288 128.928 288 288h-64a224 224 0 1 0-448 0H224zM512 256a128 128 0 1 1 0-256 128 128 0 0 1 0 256z m0-64a64 64 0 1 0 0.032-127.968A64 64 0 0 0 512 192z" p-id="16626"></path></svg>