<?xml version="1.0" standalone="no"?><!DOCTYPE svg PUBLIC "-//W3C//DTD SVG 1.1//EN" "http://www.w3.org/Graphics/SVG/1.1/DTD/svg11.dtd"><svg t="1531472101224" class="icon" style="" viewBox="0 0 1024 1024" version="1.1" xmlns="http://www.w3.org/2000/svg" p-id="18056" xmlns:xlink="http://www.w3.org/1999/xlink" width="200" height="200"><defs><style type="text/css"></style></defs><path d="M673.302948 666.93461833a11.620953 11.620953 0 1 0 19.072502 13.308913 408.919045 408.919045 0 0 0 60.074051-129.467948c9.817577-37.04855 14.628984-75.950971 14.311589-115.625236-0.548226-67.612162-15.718223-113.713658-16.360224-115.639663a11.628166 11.628166 0 0 0-10.921243-7.942067c-125.817915-1.240722-189.99645-56.618783-211.774015-80.401702-1.341712-1.471555-7.199076-7.328919-16.518921-7.862718-4.768125-0.281327-12.032123 0.800699-19.570233 7.559751-0.274113 0.245259-0.533799 0.504945-0.779058 0.771845-65.440897 70.901519-169.603877 79.514441-211.341205 79.932824a11.628166 11.628166 0 0 0-11.065513 8.439798c-0.245259 0.86562-6.088196 21.539519-9.824791 55.305926-3.433627 31.003635-5.6626 79.478374 3.224436 134.380343 10.005128 61.855786 31.761053 119.07329 64.676266 170.094396 41.059258 63.644735 99.618473 117.616163 174.018541 160.413875 1.500409 0.858407 3.159514 1.363352 4.883541 1.500408l1.601398 0.137057a11.599312 11.599312 0 0 0 6.715771-1.507622c35.944884-20.666685 68.881738-44.161064 97.90166-69.819494 3.332638-2.618502 44.983403-34.855645 75.287328-38.967342a11.628166 11.628166 0 0 0-3.13066-23.047141c-37.791541 5.1288-84.881287 42.400969-86.865001 43.98794a4.775339 4.775339 0 0 0-0.45445 0.389529c-26.531263 23.487165-56.525008 45.098819-89.216603 64.315591-68.636479-40.337908-122.73775-90.623235-160.853898-149.514272-31.176759-48.157345-51.850658-102.251402-61.437403-160.760123-13.373834-81.541435-1.247936-149.398856 3.85201-172.26566 54.158979-1.623038 103.044887-12.948237 145.438643-33.715912 36.305559-17.795711 59.836006-38.59224 73.289188-53.055313 2.055848-1.760095 2.596861-1.392206 3.116234-0.916115 13.294486 14.506354 36.788864 35.540928 73.332469 53.581899 42.675082 21.077855 91.964947 32.540111 146.643298 34.127082 4.126124 15.357547 12.501 52.326749 12.897743 100.678858 0.317394 37.596776-4.248753 74.428922-13.546958 109.479331a386.239793 386.239793 0 0 1-56.676492 122.102962z" p-id="18057"></path><path d="M364.904064 387.60615033a11.63538 11.63538 0 1 0-6.93939-22.210375c-12.753473 3.989067-30.116374 5.691454-30.282284 5.705881a11.63538 11.63538 0 0 0-10.33695 9.471329c-0.367889 1.990927-8.887035 49.448562 1.478768 112.884105a11.63538 11.63538 0 1 0 22.953366-3.743808c-7.242357-44.326975-4.558934-80.848939-2.71949-96.574375 7.098087-1.045958 17.139283-2.813266 25.84598-5.532757z" p-id="18058"></path><path d="M511.1939 0.043281c-282.329285 0-511.192088 228.870016-511.192087 511.192088 0 282.329285 228.870016 511.199301 511.192087 511.199301s511.192088-228.870016 511.192088-511.199301S793.515972 0.043281 511.1939 0.043281z m0 991.712362c-265.384767 0-480.520274-215.135507-480.520274-480.527488S245.809133 30.707881 511.1939 30.707881c265.377554 0 480.520274 215.135507 480.520274 480.520274s-215.14272 480.527487-480.520274 480.527488z" p-id="18059"></path></svg>