<?xml version="1.0" standalone="no"?><!DOCTYPE svg PUBLIC "-//W3C//DTD SVG 1.1//EN" "http://www.w3.org/Graphics/SVG/1.1/DTD/svg11.dtd"><svg t="1533371483329" class="icon" style="" viewBox="0 0 1250 1024" version="1.1" xmlns="http://www.w3.org/2000/svg" p-id="1485" xmlns:xlink="http://www.w3.org/1999/xlink" width="244.140625" height="200"><defs><style type="text/css"></style></defs><path d="M217.669381 1024a36.893067 36.893067 0 0 1-36.893068-36.893067v-90.246118a438.743707 438.743707 0 0 1 78.610613-251.15665 444.703356 444.703356 0 0 1 201.209112-160.910532l13.338263-5.392063-11.351713-9.081371a263.075948 263.075948 0 1 1 324.091406 0l-11.351713 9.081371 13.338263 5.392063a444.703356 444.703356 0 0 1 201.209112 160.342946 438.743707 438.743707 0 0 1 78.32682 251.15665v90.813704a36.893067 36.893067 0 0 1-36.893067 36.893067zM624.344498 527.362557a368.930672 368.930672 0 0 0-368.930672 368.930672v53.920637h737.861344v-53.353051a368.930672 368.930672 0 0 0-368.930672-368.930672z m0-451.514384a189.006021 189.006021 0 1 0 189.006021 189.006021A189.006021 189.006021 0 0 0 624.344498 75.848173zM36.893351 888.630823a36.893067 36.893067 0 0 1-36.893067-36.893068v-69.813034a350.767931 350.767931 0 0 1 189.8574-312.172107l8.797577-5.675857-6.527235-7.662406a217.101511 217.101511 0 0 1 157.221225-363.254816l-2.270342 3.689307a278.116968 278.116968 0 0 0-42.001338 78.610612 141.896412 141.896412 0 0 0-11.351713 265.913877 36.893067 36.893067 0 0 1 25.257561 34.055139 37.460653 37.460653 0 0 1-26.392733 34.338932l-8.513784 1.98655a278.684554 278.684554 0 0 0-210.290483 270.170769v32.919967h43.136509a460.595754 460.595754 0 0 0-7.378614 73.786135H36.893351z m1101.967538 0a460.311961 460.311961 0 0 0-7.378613-73.502342h43.420302v-33.20376a278.400761 278.400761 0 0 0-210.00669-270.454562l-8.513785-1.98655a37.460653 37.460653 0 0 1-26.392733-34.338932 36.893067 36.893067 0 0 1 25.257562-34.055139 141.896412 141.896412 0 0 0-11.351713-265.913876 277.833175 277.833175 0 0 0-42.001338-78.894406l-2.270343-3.689306a217.101511 217.101511 0 0 1 156.937432 363.822401l-7.378613 7.946199 9.648956 4.824478a350.767931 350.767931 0 0 1 189.857399 312.172107v69.813035a36.893067 36.893067 0 0 1-36.893067 36.893067h-72.934756z" fill="#999999" p-id="1486"></path></svg>