<?xml version="1.0" standalone="no"?><!DOCTYPE svg PUBLIC "-//W3C//DTD SVG 1.1//EN" "http://www.w3.org/Graphics/SVG/1.1/DTD/svg11.dtd"><svg t="1534141724882" class="icon" style="" viewBox="0 0 1024 1024" version="1.1" xmlns="http://www.w3.org/2000/svg" p-id="2261" xmlns:xlink="http://www.w3.org/1999/xlink" width="200" height="200"><defs><style type="text/css"></style></defs><path d="M735.25248 138.60864c59.79136 13.09696 90.9824 40.84736 89.22112 81.48992-2.99008 72.79616-144.61952 158.93504-304.05632 191.83616 15.72864-107.59168 52.29568-185.4464 87.8592-192.60416 12.9024-2.64192 29.39904-2.21184 43.39712 15.73888 0.21504 0.21504 0.33792 0.5632 0.55296 0.77824L688.98816 225.28C652.11392 145.43872 600.6784 95.77472 544.07168 95.77472c-94.9248 0-175.104 139.64288-196.99712 326.9632-80.06656-8.46848-134.0416-38.8608-132.92544-85.4528 1.20832-54.07744 72.45824-114.86208 169.15456-155.50464l-10.25024-35.7888c-166.52288 63.87712-290.5088 171.23328-290.5088 269.37344 0 90.30656 107.3664 148.34688 259.66592 156.14976 10.69056 216.18688 97.24928 385.55648 201.86112 385.55648 95.16032 0 175.31904-139.9808 197.12-327.75168L678.1952 645.8368c-13.75232 100.64896-44.04224 170.7008-78.83776 170.7008-44.04224 0-80.60928-111.75936-86.12864-255.71328 8.04864-1.3312 16.18944-2.73408 24.34048-4.4032 247.45984-47.68768 450.4064-191.72352 446.02368-316.38528-3.19488-87.87968-114.20672-142.17216-262.0928-150.76352l13.75232 49.33632z m0 0" p-id="2262"></path></svg>