<?xml version="1.0" standalone="no"?><!DOCTYPE svg PUBLIC "-//W3C//DTD SVG 1.1//EN" "http://www.w3.org/Graphics/SVG/1.1/DTD/svg11.dtd"><svg t="1534142072580" class="icon" style="" viewBox="0 0 1024 1024" version="1.1" xmlns="http://www.w3.org/2000/svg" p-id="15861" xmlns:xlink="http://www.w3.org/1999/xlink" width="200" height="200"><defs><style type="text/css"></style></defs><path d="M265.43693 552.336684c-12.363585 0-22.384823 10.005888-22.384823 22.351054s10.021238 22.352077 22.384823 22.352077l223.844138 0c12.361539 0 22.3838-10.006911 22.3838-22.352077s-10.022261-22.351054-22.3838-22.351054L265.43693 552.336684zM592.708672 419.491073 261.455245 419.491073c-10.1645 0-18.403139 10.006911-18.403139 22.352077 0 12.344143 8.239662 22.351054 18.403139 22.351054l331.253426 0c10.163477 0 18.402115-10.006911 18.402115-22.351054C611.110787 429.497984 602.872149 419.491073 592.708672 419.491073zM668.356582 330.085834c12.361539 0 22.3838-10.006911 22.3838-22.351054 0-12.345166-10.022261-22.351054-22.3838-22.351054L265.43693 285.383726c-12.363585 0-22.384823 10.005888-22.384823 22.351054 0 12.344143 10.021238 22.351054 22.384823 22.351054L668.356582 330.085834zM825.048297 17.166985l-626.764813 0c-74.175373 0-134.306892 60.040445-134.306892 134.108371l0 715.242937c0 74.061786 60.131519 134.109394 134.306892 134.109394l402.918629 0 0-44.704155L198.283484 955.923532c-49.450249 0-89.538269-40.032762-89.538269-89.405239L108.745215 151.275355c0-49.378617 40.086997-89.405239 89.538269-89.405239l626.764813 0c49.449225 0 89.536222 40.026622 89.536222 89.405239l0 379.973034 44.769646 0L959.354166 151.275355C959.354166 77.207429 899.221624 17.166985 825.048297 17.166985zM910.29789 592.458473l0.00614 0c-26.692942-23.569812-62.516846-35.358299-107.637486-35.358299-42.8489 0-77.499072 11.632945-103.886045 34.892695-26.380834 23.258727-41.759079 55.333236-42.615587 84.918042-0.856507 29.580712 69.463048 23.412223 72.04178 8.81783 2.733251-15.451924 14.282285-40.432875 27.710109-51.744501 13.420661-11.32186 30.122041-17.019629 50.110281-17.019629 20.678972 0 37.228903 5.464455 49.402153 16.316617 12.178367 10.924817 18.34174 23.961738 18.34174 39.178301 0 10.93198-3.50994 20.99722-10.376325 30.130228-4.455475 5.77247-18.189268 17.950837-41.061185 36.604686-22.867824 18.576077-38.169321 35.358299-45.814442 50.263777-7.653307 14.907525-11.474332 33.873482-11.474332 56.973596 0 2.267647 0.156566 8.509814 0.311085 18.738783l71.339792 0c-0.391926-21.620413 1.484817-36.610826 5.465478-44.958958 3.980661-8.428973 14.283308-19.514449 30.828123-33.248242 32.001855-26.619264 52.843532-47.609321 62.676481-63.065338 9.757225-15.456017 14.672164-31.849382 14.59951-49.177026C950.267207 643.426285 936.993902 616.028285 910.29789 592.458473zM801.112142 903.494439c-27.713178 0-50.116421 22.010293-50.116421 49.096185 0 27.084868 22.481014 49.096185 50.116421 49.096185 27.703969 0 50.106188-22.011316 50.106188-49.096185C851.21833 925.504732 828.737316 903.494439 801.112142 903.494439z" p-id="15862"></path></svg>