<?xml version="1.0" standalone="no"?><!DOCTYPE svg PUBLIC "-//W3C//DTD SVG 1.1//EN" "http://www.w3.org/Graphics/SVG/1.1/DTD/svg11.dtd"><svg t="1531471588240" class="icon" style="" viewBox="0 0 1024 1024" version="1.1" xmlns="http://www.w3.org/2000/svg" p-id="7233" xmlns:xlink="http://www.w3.org/1999/xlink" width="200" height="200"><defs><style type="text/css"></style></defs><path d="M512.01842 64.332191c-247.25636 0-447.677019 200.419635-447.677019 447.639157 0 247.27478 200.420659 447.695438 447.677019 447.695438 247.237941 0 447.657576-200.420659 447.639157-447.695438C959.657576 264.751826 759.236917 64.332191 512.01842 64.332191zM512.019443 918.664953c-224.620827 0-406.675186-182.073802-406.694629-406.675186 0-224.580918 182.073802-406.65472 406.694629-406.65472 224.580918 0 406.65472 182.054359 406.65472 406.635277C918.674163 736.591151 736.600361 918.664953 512.019443 918.664953z" p-id="7234"></path><path d="M705.597253 267.038916c-252.639974 51.607378-333.246827 319.991941-339.193259 341.054653-0.288572 0.969071-0.577145 1.807159-0.995677 2.750647l-61.667501 140.125411c-0.916882 2.095731 1.598404 4.034896 3.353374 2.540869 3.850701-3.27458 9.168824-7.832386 15.141862-12.94073 75.236542-90.064248 228.199329-271.475971 256.438487-276.16476L418.535305 679.976736c73.323982 27.009144 133.995807-19.385513 146.726759-30.230512 1.12666-0.969071 0.681522-2.750647-0.759293-3.195785l-48.201815-15.247262 64.417125-18.46863c2.567475-0.732687 5.056156-1.885953 7.230682-3.405563 42.621726-30.072923 53.990658-74.869175 56.270585-86.186941 0.261966-1.335415-0.916882-2.409886-2.25332-2.14792l-58.129932 10.977006 63.395866-34.841529c2.959402-1.62501 5.579065-3.877307 7.597025-6.602372 63.395866-85.84618 64.888869-181.175339 63.212694-213.947743C717.753107 270.340101 711.780069 265.782296 705.597253 267.038916L705.597253 267.038916z" p-id="7235"></path></svg>