<?xml version="1.0" standalone="no"?><!DOCTYPE svg PUBLIC "-//W3C//DTD SVG 1.1//EN" "http://www.w3.org/Graphics/SVG/1.1/DTD/svg11.dtd"><svg t="1547280958765" class="icon" style="" viewBox="0 0 1024 1024" version="1.1" xmlns="http://www.w3.org/2000/svg" p-id="3446" xmlns:xlink="http://www.w3.org/1999/xlink" width="100" height="100"><defs><style type="text/css"></style></defs><path d="M512 0C230.4 0 0 230.4 0 512s230.4 512 512 512 512-230.4 512-512S793.6 0 512 0zM512 960c-249.6 0-448-198.4-448-448 0-249.6 198.4-448 448-448 249.6 0 448 198.4 448 448C960 761.6 761.6 960 512 960z" p-id="3447"></path><path d="M678.4 160 345.6 160c-32 0-57.6 25.6-57.6 57.6l0 588.8c0 32 25.6 57.6 57.6 57.6l339.2 0c32 0 57.6-25.6 57.6-57.6L742.4 217.6C736 185.6 710.4 160 678.4 160zM396.8 192l230.4 0C633.6 192 640 198.4 640 211.2S633.6 224 627.2 224L396.8 224C390.4 224 384 217.6 384 211.2S390.4 192 396.8 192zM512 851.2c-19.2 0-32-12.8-32-32 0-19.2 12.8-32 32-32s32 12.8 32 32C544 832 531.2 851.2 512 851.2zM672 710.4c0 32-25.6 57.6-64 57.6l-192 0c-38.4 0-64-25.6-64-57.6L352 313.6c0-32 25.6-57.6 64-57.6l192 0c38.4 0 64 25.6 64 57.6L672 710.4z" p-id="3448"></path></svg>