<?xml version="1.0" standalone="no"?><!DOCTYPE svg PUBLIC "-//W3C//DTD SVG 1.1//EN" "http://www.w3.org/Graphics/SVG/1.1/DTD/svg11.dtd"><svg t="1534141920153" class="icon" style="" viewBox="0 0 1024 1024" version="1.1" xmlns="http://www.w3.org/2000/svg" p-id="8414" xmlns:xlink="http://www.w3.org/1999/xlink" width="200" height="200"><defs><style type="text/css"></style></defs><path d="M961.998 739.44c-21.331 25.035-47.96 48.286-79.872 69.092l-0.877 0.587-0.04 0.034c-95.369 61.924-225.418 96.023-366.276 96.023-120.335 0-237.023-26.032-328.541-73.326-51.73-26.764-93.747-59.696-124.591-96.545 6.822 67.119 57.837 132.887 151.49 181.279 86.654 44.759 194.465 66.796 301.642 66.796 123.714 0 246.52-29.338 334.999-86.993l0.162-0.122c69.322-45.23 106-100.643 111.904-156.825z" fill="" p-id="8415"></path><path d="M882.126 671.694l-0.877 0.574-0.04 0.034c-95.369 61.922-225.418 96.023-366.276 96.023-120.335 0-237.023-26.034-328.541-73.334-51.73-26.756-93.747-59.673-124.591-96.556 6.822 67.118 57.837 132.887 151.49 181.293 86.654 44.765 194.465 66.814 301.642 66.814 123.714 0 246.52-29.37 334.999-87.01l0.162-0.114c69.32-45.22 106-100.646 111.903-156.834-21.33 25.037-47.959 48.29-79.87 69.11z" fill="" p-id="8416"></path><path d="M882.126 534.84l-0.877 0.576-0.04 0.034c-95.369 61.916-225.418 96.015-366.276 96.015-120.335 0-237.023-26.046-328.541-73.325-51.73-26.744-93.747-59.681-124.591-96.564 6.822 67.139 57.837 132.907 151.49 181.314 86.654 44.746 194.465 66.8 301.642 66.8 123.714 0 246.52-29.378 334.999-86.99l0.162-0.123c69.32-45.233 106-100.664 111.903-156.847-21.33 25.022-47.959 48.285-79.87 69.11z" fill="" p-id="8417"></path><path d="M61.234 300.65c-4.417 75.366 47.043 151.461 152.057 205.704 186.602 96.416 471.587 87.418 636.641-20.176l0.162-0.116c72.346-47.244 109.54-105.521 112.878-164.209 0.201-3.661-0.203-7.322-0.27-10.997-0.068-4.594 0.175-9.18-0.298-13.787-6.984-66.97-58.012-132.57-151.49-180.842-86.587-44.765-194.438-66.801-301.575-66.801-8.065 0-16.132 0.472-24.129 0.73-0.472 0-0.918 0.033-1.391 0.033a786.07 786.07 0 0 0-41.57 2.479c-0.568 0.047-1.15 0.114-1.757 0.148-13.727 1.25-27.332 2.816-40.869 4.776-0.54 0.102-1.107 0.19-1.646 0.257-13.605 2.019-26.994 4.349-40.221 7.085-0.378 0.08-0.676 0.169-0.987 0.236-68.065 14.185-131.197 37.842-182.59 71.334l-0.135 0.087c-72.252 47.161-109.5 105.39-112.81 164.058zM801.74 460.784l-0.067 0.033C660.276 553.046 415.89 560.821 256.01 478.212 96.022 395.551 81.134 253.79 222.573 161.562 364.025 69.274 608.18 61.478 768.195 144.154c159.852 82.608 175.012 224.337 33.545 316.63z" fill="" p-id="8418"></path><path d="M241.23 171.248c-132.007 86.439-117.876 218.656 31.343 296.185 149.964 77.055 377.813 69.866 510.403-16.3 132.009-86.418 118.038-218.737-31.317-296.184-149.829-77.157-377.813-69.848-510.428 16.3z m131.036 251.486L351.65 436.17c-7.863 5.094-10.7 5.127-19.954 0.35l-2.864-1.486-7.526-3.898c-9.349-4.823-9.646-6.478-1.85-11.571l20.643-13.463c-17.536-9.045-79.562-53.487-65.794-62.451 1.42-0.925 1.42-0.925 5.12-2.122l53.622-17.414c1.35-0.405 6.214-1.128 8.336-0.054 3.147 1.62 19.873 31.25 48.365 49.657l89.858-58.614c-19.267-24.4-62.769-65.667-2.258-105.15 67.484-44.002 154.085-21.752 178.89-10.039l22.467-14.665c7.795-5.094 10.768-5.195 20.075-0.386l10.525 5.452c9.147 4.722 9.35 6.478 1.554 11.558l-22.508 14.66c14.28 8.423 70.497 49.238 54.904 59.425-1.852 1.216-3.77 1.858-6.716 2.513l-47.203 12.018c-3.243 1.026-6.214 1.128-8.335 0.034-3.203-1.634-18.36-31.013-40.76-42.605l-84.913 55.358c19.102 27.034 56.46 69.349-2.297 107.683-63.74 41.578-141.383 26.122-180.765 11.774z" fill="" p-id="8419"></path><path d="M490.668 381.987c26.562-17.327 13.308-35.477 6.932-45.197l-79.28 51.71c18.673 5.403 47.18 9.922 72.348-6.513zM536.94 282.039l74.808-48.82c-12.714-3.844-44.07-12.53-71.092 5.1-24.846 16.199-10.564 34.755-3.715 43.72z" fill="" p-id="8420"></path></svg>