<?xml version="1.0" standalone="no"?><!DOCTYPE svg PUBLIC "-//W3C//DTD SVG 1.1//EN" "http://www.w3.org/Graphics/SVG/1.1/DTD/svg11.dtd"><svg t="1531550875686" class="icon" style="" viewBox="0 0 1024 1024" version="1.1" xmlns="http://www.w3.org/2000/svg" p-id="2626" xmlns:xlink="http://www.w3.org/1999/xlink" width="200" height="200"><defs><style type="text/css"></style></defs><path d="M228.92068 341.94505c0-81.414972 28.943371-150.16451 85.0347-206.248614 57.893967-57.893967 126.647118-86.840951 208.058477-86.840951 81.404135 0 150.160897 28.946984 206.248614 86.840951 57.890355 56.084104 86.840951 124.837254 86.840951 206.248614l0 54.270627 54.263402 0c30.756848 0 57.89758 27.140732 57.89758 57.893967l0 463.151739c0 30.749623-27.144345 57.890355-57.89758 57.890355L174.64644 975.151739c-30.753235 0-57.890355-27.144345-57.890355-57.890355L116.756086 454.109645c0-30.753235 27.13712-57.893967 57.890355-57.893967l54.27424 0L228.92068 341.94505zM344.705002 396.215678l354.60326 0L699.308262 341.94505c0-95.89027-77.795244-177.30163-177.298017-177.30163-99.506385 0-177.305242 81.41136-177.305242 177.30163L344.705002 396.215678zM603.414379 768.899513c45.232146-45.221308 45.232146-121.217526 0-164.628971-43.407832-45.232146-119.40405-45.232146-164.625358 0-43.425894 43.415057-43.425894 119.411275 0 164.628971C484.010329 812.325407 560.01016 812.325407 603.414379 768.899513z" p-id="2627"></path></svg>