<?xml version="1.0" standalone="no"?><!DOCTYPE svg PUBLIC "-//W3C//DTD SVG 1.1//EN" "http://www.w3.org/Graphics/SVG/1.1/DTD/svg11.dtd"><svg t="1547175903642" class="icon" style="" viewBox="0 0 1024 1024" version="1.1" xmlns="http://www.w3.org/2000/svg" p-id="1202" xmlns:xlink="http://www.w3.org/1999/xlink" width="200" height="200"><defs><style type="text/css"></style></defs><path d="M563.591 535.628l289.17-287.604c13.666-13.636 13.726-35.699 0.12-49.334-13.634-13.756-35.637-13.756-49.303-0.18l-289.2 287.724L227.646 198.66c-13.545-13.575-35.669-13.696-49.304-0.06-13.635 13.574-13.665 35.668-0.06 49.303l286.612 287.545-288.99 287.484c-13.665 13.575-13.726 35.639-0.15 49.334 6.832 6.893 15.742 10.294 24.712 10.294 8.91 0 17.819-3.4 24.621-10.173l289.08-287.545 289.29 290.193c6.833 6.893 15.743 10.295 24.713 10.295 8.91 0 17.819-3.402 24.591-10.174 13.636-13.635 13.666-35.699 0.06-49.334l-289.23-290.194z m0 0" p-id="1203"></path></svg>