<?xml version="1.0" standalone="no"?><!DOCTYPE svg PUBLIC "-//W3C//DTD SVG 1.1//EN" "http://www.w3.org/Graphics/SVG/1.1/DTD/svg11.dtd"><svg t="1547191820493" class="icon" style="" viewBox="0 0 1024 1024" version="1.1" xmlns="http://www.w3.org/2000/svg" p-id="5567" xmlns:xlink="http://www.w3.org/1999/xlink" width="100" height="100"><defs><style type="text/css"></style></defs><path d="M768 621.714286l43.885714 73.142857c14.628571 21.942857 7.314286 43.885714-14.628571 51.2s-43.885714 7.314286-51.2-14.628572l-51.2-73.142857c-43.885714 14.628571-87.771429 21.942857-138.971429 29.257143v95.085714c0 21.942857-14.628571 36.571429-36.571428 36.571429s-36.571429-14.628571-36.571429-36.571429V687.542857c-51.2-7.314286-102.4-14.628571-146.285714-36.571428L285.257143 731.428571c-7.314286 21.942857-36.571429 21.942857-51.2 14.628572s-29.257143-36.571429-14.628572-58.514286l43.885715-73.142857c-80.457143-43.885714-146.285714-117.028571-212.114286-204.8-14.628571-14.628571-14.628571-43.885714 7.314286-51.2s36.571429-7.314286 51.2 7.314286C226.742857 526.628571 365.714286 607.085714 519.314286 607.085714c160.914286 0 292.571429-80.457143 394.971428-241.371428 14.628571-14.628571 36.571429-21.942857 51.2-14.628572 14.628571 14.628571 21.942857 36.571429 14.628572 51.2-58.514286 102.4-131.657143 175.542857-212.114286 219.428572z" p-id="5568"></path></svg>