<?xml version="1.0" standalone="no"?><!DOCTYPE svg PUBLIC "-//W3C//DTD SVG 1.1//EN" "http://www.w3.org/Graphics/SVG/1.1/DTD/svg11.dtd"><svg t="1547191794455" class="icon" style="" viewBox="0 0 1024 1024" version="1.1" xmlns="http://www.w3.org/2000/svg" p-id="10505" xmlns:xlink="http://www.w3.org/1999/xlink" width="100" height="100"><defs><style type="text/css"></style></defs><path d="M501.955162 195.151511c69.411539 0.127699 132.004442 14.31552 192.062645 39.964913 68.753769 29.355068 129.445647 70.995727 185.423511 119.827275 47.314824 41.293704 90.075859 86.866522 129.584188 135.501704 13.533666 16.663492 12.680734 30.464602 2.140762 45.929412-29.009318 42.602014-62.178485 81.775435-98.122089 118.709308-48.782155 50.131426-102.855379 93.641788-164.400188 127.645816-52.448075 28.968358-108.027181 49.218259-167.689035 57.499407-73.908706 10.265299-145.73568 1.605873-215.660424-23.81824-73.948461-26.908311-138.642372-68.913995-198.084969-119.400809C110.22336 648.644969 59.934118 593.977826 14.162522 535.148424c-12.483162-16.032226-12.680734-25.343398-0.813176-41.968339 53.302212-74.6496 116.786598-139.414588 191.46752-193.209525 49.358005-35.558099 102.580706-63.881939 160.754748-82.597045C411.125158 202.71104 457.867746 195.300894 501.955162 195.151511L501.955162 195.151511zM729.126551 322.380499c62.297751 113.260424 26.708329 240.625544-55.044216 309.244386-85.419671 71.688433-206.108311 79.494927-298.109289 18.705468-55.300819-36.538729-90.908311-87.184565-105.452725-151.650786-14.522729-64.337318-3.487624-124.891859 29.523727-181.966005-88.847059 48.932744-159.783755 117.37088-221.644198 196.083953 28.194936 34.971407 57.521092 68.100819 89.145826 99.171388 28.393713 27.938334 58.433054 53.974438 90.986616 77.156593 58.928188 41.928584 122.671586 72.858202 194.697336 85.440151 45.930616 8.006475 91.802202 8.006475 137.513562-1.18784 67.664715-13.632452 128.079511-43.452536 183.5008-83.359624 65.782965-47.376264 121.383755-105.035896 169.452725-169.968339 2.356405-3.190061 2.376885-5.191078-0.297562-8.134174-18.110344-19.874033-35.607492-40.302231-54.133459-59.770278-41.353939-43.470607-86.391868-82.783774-137.075049-115.439736-7.610127-4.903153-15.376866-9.549704-23.065299-14.314315L729.125346 322.380499zM339.277704 454.81984c1.149289 3.804461 1.921506 9.788235 4.635708 14.761261 4.953751 9.055774 17.259821 12.771087 29.028593 9.888226 11.136301-2.735887 17.397158-11.225449 19.041581-23.153242 1.902231-13.879416 3.586409-28.028687 7.787219-41.314184 16.247868-51.228913 52.389045-79.276875 105.729807-85.973835 15.512998-1.940781 26.115614-13.493911 25.877082-29.057506-0.236122-14.237214-9.332856-23.054456-23.658014-22.440056-5.547671 0.238532-11.096546 1.158927-16.583981 2.081732-32.059633 5.398287-61.623115 16.7936-86.767736 37.637421C361.845459 352.458391 344.866334 399.814174 339.277704 454.81984L339.277704 454.81984z" p-id="10506"></path></svg>