<?xml version="1.0" standalone="no"?><!DOCTYPE svg PUBLIC "-//W3C//DTD SVG 1.1//EN" "http://www.w3.org/Graphics/SVG/1.1/DTD/svg11.dtd"><svg t="1533371632142" class="icon" style="" viewBox="0 0 1024 1024" version="1.1" xmlns="http://www.w3.org/2000/svg" p-id="3426" xmlns:xlink="http://www.w3.org/1999/xlink" width="200" height="200"><defs><style type="text/css"></style></defs><path d="M557.933714 792.283429h-70.656v145.846857H101.961143v58.368h816.274286v-58.368H557.933714v-145.846857zM921.161143 46.08h-825.051429c-46.665143 0-81.627429 34.962286-81.627428 81.627429V667.062857c0 43.739429 37.888 81.627429 81.627428 81.627429h825.051429c46.665143 0 81.627429-34.962286 81.627428-81.627429V127.707429c2.925714-46.518857-34.962286-81.627429-81.627428-81.627429z m29.110857 618.203429c0 14.628571-11.702857 26.185143-26.185143 26.185142h-827.977143c-14.628571 0-26.185143-11.702857-26.185143-26.185142V127.707429c0-17.554286 11.702857-29.110857 26.185143-29.110858h825.051429c14.628571 0 26.185143 11.702857 26.185143 26.185143V664.137143h2.925714v0.146286z" p-id="3427"></path><path d="M734.354286 270.628571L556.324571 470.162286 389.12 338.066286 154.624 569.929143l37.741714 37.741714L394.678857 408.137143l169.837714 137.508571 210.358858-239.908571 40.374857 35.108571 32.329143-156.525714-153.746286 51.2 40.521143 35.108571z m0 0" p-id="3428"></path></svg>