<?xml version="1.0" standalone="no"?><!DOCTYPE svg PUBLIC "-//W3C//DTD SVG 1.1//EN" "http://www.w3.org/Graphics/SVG/1.1/DTD/svg11.dtd"><svg t="1534142059515" class="icon" style="" viewBox="0 0 1024 1024" version="1.1" xmlns="http://www.w3.org/2000/svg" p-id="15161" xmlns:xlink="http://www.w3.org/1999/xlink" width="200" height="200"><defs><style type="text/css"></style></defs><path d="M702.123 829.895a42.212 42.212 0 1 0 84.423 0 42.212 42.212 0 1 0-84.423 0z" p-id="15162"></path><path d="M917.618 799.972a51.086 51.086 0 0 0-5.12-39.14l-22.756-39.367a51.541 51.541 0 0 0-70.542-18.887h-0.796v-0.91a51.541 51.541 0 0 0-51.542-51.542h-45.51a51.541 51.541 0 0 0-51.542 51.542v0.91h-0.797a51.541 51.541 0 0 0-70.314 18.887l-22.756 39.367a51.541 51.541 0 0 0 18.887 70.315h0.797-0.797a51.541 51.541 0 0 0-18.887 70.314l22.756 39.367a51.541 51.541 0 0 0 70.314 18.888h0.797v0.91a51.541 51.541 0 0 0 51.769 51.996h45.51a51.541 51.541 0 0 0 51.542-51.541v-0.91h0.797a51.541 51.541 0 0 0 70.314-18.887l22.756-39.368a51.428 51.428 0 0 0-18.887-70.314h-0.797 0.797a51.2 51.2 0 0 0 24.007-31.63z m-78.848 31.402v6.713a22.756 22.756 0 0 0 11.378 21.39l21.048 12.175a5.916 5.916 0 0 1 2.162 8.192l-22.755 39.367a5.916 5.916 0 0 1-3.641 2.844 5.916 5.916 0 0 1-5.006-0.455l-21.163-12.174a22.756 22.756 0 0 0-24.349 0.796 95.346 95.346 0 0 1-11.377 6.372 22.756 22.756 0 0 0-12.743 20.366v24.462a6.03 6.03 0 0 1-6.03 6.03h-45.512a6.03 6.03 0 0 1-6.03-6.03v-24.576a22.756 22.756 0 0 0-12.743-20.48 96.028 96.028 0 0 1-11.378-6.485 22.756 22.756 0 0 0-24.007-0.797L646.599 921.6a6.03 6.03 0 0 1-8.192-2.162l-22.755-39.367a6.03 6.03 0 0 1 2.161-8.192l20.594-11.378a22.756 22.756 0 0 0 11.378-21.39V825.8a22.756 22.756 0 0 0-11.378-21.276l-20.594-11.378a6.03 6.03 0 0 1-2.161-8.192l22.755-39.367a6.03 6.03 0 0 1 8.192-2.162l20.366 11.378a22.756 22.756 0 0 0 24.121-0.91 94.777 94.777 0 0 1 11.378-6.827 22.756 22.756 0 0 0 12.857-20.48v-24.462a6.03 6.03 0 0 1 6.03-6.03h45.511a6.03 6.03 0 0 1 6.03 6.03v23.78a22.756 22.756 0 0 0 12.744 20.48 93.753 93.753 0 0 1 11.377 6.712 22.756 22.756 0 0 0 24.235 0.91l20.594-11.377a6.03 6.03 0 0 1 8.192 2.161l22.755 39.367a6.03 6.03 0 0 1-2.161 8.192l-20.936 12.06a22.756 22.756 0 0 0-11.377 21.164c0.341 1.592 0.455 3.64 0.455 5.688z" p-id="15163"></path><path d="M872.334 345.543v-64.398a62.236 62.236 0 0 0-62.122-62.123H542.834v-31.289a96.37 96.37 0 1 0-68.267-2.275v34.133H214.016a62.35 62.35 0 0 0-62.35 62.123v64.398a150.756 150.756 0 0 0 0 293.774v64.398a62.35 62.35 0 0 0 62.35 62.123h144.043v41.415h-38.912a62.236 62.236 0 0 0-62.123 62.123v34.93a62.236 62.236 0 0 0 62.123 62.236h174.421a34.133 34.133 0 0 0 0-68.267H325.291V876.09h66.787a34.133 34.133 0 0 0 34.134-34.133v-76.118h91.022a34.133 34.133 0 0 0 0-68.266H219.932V287.289h584.136V609.28a34.133 34.133 0 0 0 34.133 34.133 34.133 34.133 0 0 0 4.892 0 150.756 150.756 0 0 0 29.241-297.642zM512 68.267a28.217 28.217 0 1 1-28.444 28.217A28.217 28.217 0 0 1 512 68.267zM103.083 492.43a82.83 82.83 0 0 1 48.583-75.32V567.75a82.83 82.83 0 0 1-48.583-75.32z m769.251 75.321V417.11a82.603 82.603 0 0 1 0 150.528z" p-id="15164"></path><path d="M276.708 492.43a96.711 96.711 0 1 0 96.71-96.71 96.825 96.825 0 0 0-96.71 96.71z m125.155 0a28.444 28.444 0 1 1-28.444-28.444 28.444 28.444 0 0 1 28.444 28.444z m246.67 96.711a96.711 96.711 0 1 0-96.71-96.71 96.825 96.825 0 0 0 96.71 96.71z m0-125.155a28.444 28.444 0 1 1-28.444 28.444 28.444 28.444 0 0 1 28.444-28.444z" p-id="15165"></path></svg>