<?xml version="1.0" standalone="no"?><!DOCTYPE svg PUBLIC "-//W3C//DTD SVG 1.1//EN" "http://www.w3.org/Graphics/SVG/1.1/DTD/svg11.dtd"><svg t="1533371374821" class="icon" style="" viewBox="0 0 1287 1024" version="1.1" xmlns="http://www.w3.org/2000/svg" p-id="782" xmlns:xlink="http://www.w3.org/1999/xlink" width="251.3671875" height="200"><defs><style type="text/css"></style></defs><path d="M1012.30286355 233.04212543h-70.80809491v-4.08865595c0-72.48072711-58.91382119-131.39454832-131.3945483-131.39454913H227.83838135C155.54350254 97.55892035 96.62968051 156.47274237 96.62968051 228.95346948v277.28524238c0 72.48072711 58.91382119 131.39454832 131.39454832 131.3945483h70.8080949v30.10737881c0 72.48072711 58.91382119 131.39454832 131.39454831 131.39454831h201.64509915l65.23265424 113.18144239c5.01789661 8.54900849 14.31029746 13.93860169 24.34609067 13.93860169 10.03579321 0 19.32819406-5.38959238 24.34608984-13.93860169l65.23265423-113.18144239h201.64509915c72.48072711 0 131.39454832-58.91382119 131.39454832-131.3945483V364.25082627c-0.37169577-72.29487881-59.47136527-131.20870084-131.76624409-131.20870085zM326.70952627 581.50715847H227.83838135c-41.44410764 0-75.08259915-33.63849151-75.08259915-75.08259915V228.95346948c0-41.44410764 33.63849151-75.08259915 75.08259915-75.08259915h582.26183899c41.44410764 0 75.08259915 33.63849151 75.08259915 75.08259915V261.10517627c0 15.42538559 12.63766525 28.06305083 28.06305084 28.06305085h98.87114493c41.44410764 0 75.08259915 33.63849151 75.08259915 75.08259915v308.69355678c-2.78772034 38.8422356-35.31112372 69.50715847-74.89675086 69.50715848H794.67483475c-10.03579321 0-19.32819406 5.38959238-24.34608985 13.93860169l-49.06387711 84.93254406-49.06387628-85.11839236c-5.01789661-8.54900849-14.31029746-13.93860169-24.34609066-13.93860086H430.04102457c-41.44410764 0-75.08259915-33.63849151-75.08259915-75.08259915v-57.98458136c0-15.23953729-12.63766525-27.69135425-28.24889914-27.69135507z" fill="#666666" p-id="783"></path><path d="M354.95842542 364.25082627c0-41.44410764 33.63849151-75.08259915 75.08259915-75.08259916h389.35159662c15.42538559 0 28.06305083-12.63766525 28.06305083-28.06305084s-12.63766525-28.06305083-28.06305083-28.06305085H430.04102457c-72.48072711 0-131.39454832 58.91382119-131.39454914 131.39454831v158.15666355c0 15.42538559 12.63766525 28.06305083 28.06305084 28.06305002s28.06305083-12.63766525 28.06305085-28.06305002v-158.34251101z" fill="#666666" p-id="784"></path><path d="M384.50826016 532.0715856c0 15.42538559 12.63766525 28.06305083 28.06305002 28.06305085h610.69658643c15.42538559 0 28.06305083-12.63766525 28.06305084-28.06305085s-12.63766525-28.06305083-28.06305084-28.06305002H412.57131018c-15.42538559 0-28.06305083 12.63766525-28.06305002 28.06305002z" fill="#666666" p-id="785"></path></svg>