<?xml version="1.0" standalone="no"?><!DOCTYPE svg PUBLIC "-//W3C//DTD SVG 1.1//EN" "http://www.w3.org/Graphics/SVG/1.1/DTD/svg11.dtd"><svg t="1530341651388" class="icon" style="" viewBox="0 0 1024 1024" version="1.1" xmlns="http://www.w3.org/2000/svg" p-id="7995" xmlns:xlink="http://www.w3.org/1999/xlink" width="200" height="200"><defs><style type="text/css"></style></defs><path d="M261.386 790.406v201.462c0 13.957 11.286 25.122 25.122 25.122h75.488c13.957 0 25.122-11.286 25.122-25.122v-327.438c0-13.957-11.286-25.122-25.122-25.122h-327.195c-13.957 0-25.122 11.286-25.122 25.122v75.488c0 13.957 11.286 25.122 25.122 25.122h201.462c13.836 0.122 25.122 11.408 25.122 25.364zM790.164 765.164h201.462c13.957 0 25.122-11.286 25.122-25.122v-75.488c0-13.957-11.286-25.122-25.122-25.122h-327.316c-13.957 0-25.122 11.286-25.122 25.122v327.316c0 13.957 11.286 25.122 25.122 25.122h75.488c13.957 0 25.122-11.286 25.122-25.122v-201.462c0.122-13.957 11.408-25.244 25.244-25.244zM765.042 236.385v-201.462c0-13.957-11.286-25.122-25.122-25.122h-75.488c-13.957 0-25.122 11.286-25.122 25.122v327.316c0 13.957 11.286 25.122 25.122 25.122h327.316c13.957 0 25.122-11.286 25.122-25.122v-75.488c0-13.957-11.286-25.122-25.122-25.122h-201.462c-13.957-0.122-25.244-11.286-25.244-25.244zM236.263 261.507h-201.462c-13.957 0-25.122 11.286-25.122 25.122v75.488c0 13.957 11.286 25.122 25.122 25.122h327.316c13.957 0 25.122-11.286 25.122-25.122v-327.195c0-13.957-11.286-25.122-25.122-25.122h-75.488c-13.957 0-25.122 11.286-25.122 25.122v201.462c-0.122 13.957-11.408 25.122-25.244 25.122z" p-id="7996"></path></svg>