<?xml version="1.0" standalone="no"?><!DOCTYPE svg PUBLIC "-//W3C//DTD SVG 1.1//EN" "http://www.w3.org/Graphics/SVG/1.1/DTD/svg11.dtd"><svg t="1534141958922" class="icon" style="" viewBox="0 0 1024 1024" version="1.1" xmlns="http://www.w3.org/2000/svg" p-id="9074" xmlns:xlink="http://www.w3.org/1999/xlink" width="200" height="200"><defs><style type="text/css"></style></defs><path d="M312.3 202.3v5.9c0 1.5 0.4 3.5 0.3 5 0.2 0.8 0.4 1.5 0.7 2.3 1.1 1.1 1.4 2.3 1.2 2.5 0.3 0.5 0.6 1.1 1 1.6 0.7 0.4 1.1 0.9 1.4 1.3 1 1 2.2 2.2 2.7 2.8 0.7 0.4 1.4 0.8 2.1 1.3 2.2 0.3 2.7 0.9 2.1 0.9l2.4 0.6c1.1 0 2.4 0.3 3.2 0.3 9.6 0.1 19.1 0 28.7 0h240c0.2 0 0.5 0 0.8-0.1 0.1-0.2 1-0.5 2.4-0.3 0.7-0.2 1.5-0.5 2.2-0.8 0.2-0.2 0.9-0.5 2.2-0.7 0.8-0.5 1.6-0.9 2.4-1.4 0.1-0.1 0.3-0.2 0.5-0.3l0.1-0.1c0.3-0.3 0.6-0.6 1-0.9 0.6-0.6 1.2-1.3 1.8-1.8 0.8-1.4 1.6-3 2.5-4.3 0.2-0.5 0.3-1.1 0.5-1.6 0.2-0.7 0.3-2.2 0.6-3.2 0.2-27.6 0.1-55.2 0.1-82.8H312.3v73.8z" p-id="9075"></path><path d="M362.5 80.3v-3.9c0-1 0.3-2.3 0.2-3.4 0.1-0.5 0.3-1 0.4-1.5 0.8-0.7 0.9-1.6 0.8-1.7 0.2-0.4 0.4-0.7 0.6-1 0.4-0.2 0.8-0.6 0.9-0.9 0.7-0.7 1.4-1.5 1.8-1.9 0.5-0.3 1-0.6 1.4-0.8 1.5-0.2 1.8-0.6 1.4-0.6 0.5-0.2 1.1-0.3 1.6-0.4 0.7 0 1.6-0.2 2.1-0.2 6.4-0.1 12.8 0 19.2 0h160.8c0.1 0.1 0.6 0.3 1.6 0.2 0.5 0.2 1 0.4 1.5 0.5 0.1 0.1 0.6 0.3 1.5 0.5 0.5 0.3 1.1 0.6 1.6 0.9 0.1 0.1 0.2 0.1 0.3 0.2l0.6 0.6 1.2 1.2c0.5 0.9 1.1 2 1.7 2.9 0.1 0.4 0.2 0.7 0.3 1.1 0.1 0.5 0.2 1.5 0.4 2.1 0.1 18.4 0.1 36.9 0.1 55.3h-202V80.3z" p-id="9076"></path><path d="M319.1 219.4c0.1 0 0.2 0.1 0.4 0.3l-0.1-0.1c-0.1-0.1-0.2-0.2-0.3-0.2zM602.7 226.8h0.9c0.1 0 0.3-0.1 0.4-0.1 0.3-0.1 0.5-0.2 0.8-0.3-0.7 0.2-1.4 0.3-2.1 0.4zM317 215.2c0.1 0.1 0.3 0.3 0.4 0.6 0-0.1-0.1-0.2-0.1-0.3l-0.3-0.3zM609.1 225.2c0.1-0.1 0.3-0.1 0.4-0.2-0.7 0.1-1.4 0.4-2.1 0.6-0.3 0.3 0.4 0.4 1.7-0.4zM610.4 224.8c-0.3 0-0.6 0.1-0.8 0.1 0 0-0.1 0-0.1 0.1 0.3-0.1 0.7-0.1 0.9-0.2zM606.1 226.6c-0.3-0.1-0.7-0.1-0.9-0.2-0.1 0-0.2 0.1-0.3 0.1 0.4 0 0.9 0 1.2 0.1zM317.4 215.8c0.1 0.2 0.1 0.4 0.2 0.6 0.4 1.3 0.7 1.7 0.9 1.6-0.1-0.1-0.2-0.3-0.2-0.4-0.3-0.4-0.6-1.2-0.9-1.8zM320.3 220.9c0.9 1.5 1.1 0.8 0.5 0-0.5-0.5-1-0.9-1.3-1.2 0.2 0.4 0.5 0.8 0.8 1.2zM326.3 225.4c0.6 0.3 1.1 0.5 1.3 0.5-0.1 0-0.3-0.1-0.4-0.1-0.2-0.2-0.5-0.3-0.9-0.4zM325.6 224.9c-0.3 0-0.5-0.1-0.8-0.1 0.4 0 1 0.3 1.6 0.5-0.1 0-0.2-0.1-0.3-0.2-0.2 0-0.3-0.1-0.5-0.2z" p-id="9077"></path><path d="M701 313.6c50.9 0 98.6 14.2 139.2 38.8V168.5c0-22-18-40-40-40H660.9V204.7c0 8.3-0.3 16.6-3.1 24.5-9 25.3-31.6 42.5-58.5 43.5h-265c-7 0-13.8-0.3-20.7-2-26.4-6.5-44.3-29.9-47.1-56.2-1.3-11.8-0.3-24.2-0.3-36.1v-50H127c-22 0-40 18-40 40V919c0 22 18 40 40 40h673.2c22 0 40-18 40-40V811.5c-40.6 24.7-88.2 38.8-139.2 38.8-148.2 0-268.4-120.2-268.4-268.4S552.8 313.6 701 313.6zM165.6 500h190.5c12.9 0 22.4 10.5 23 23 0.6 12.4-11 23-23 23H165.6c-12.9 0-22.4-10.5-23-23-0.5-12.4 11-23 23-23z m0.1 115.1h190.5c12.9 0 22.4 10.5 23 23 0.6 12.4-11 23-23 23H165.7c-12.9 0-22.4-10.5-23-23-0.6-12.4 10.9-23 23-23z m243.4 178.5h-241c-12.9 0-22.4-10.5-23-23-0.6-12.4 11-23 23-23h241c12.9 0 22.4 10.5 23 23 0.6 12.4-11 23-23 23z m0-363.5h-243c-12.9 0-22.4-10.5-23-23-0.6-12.4 11-23 23-23h243c12.9 0 22.4 10.5 23 23 0.6 12.4-11 23-23 23z" p-id="9078"></path><path d="M603.1 537c-0.1 0-0.1 0 0 0 0.7 0 1.5-0.1 2.3-0.1-0.4-0.1-1.3-0.2-2.3 0.1zM751.6 676.1c0.3-0.5 0.7-1 1-1.5-0.7 0.6-1.3 1.5-2 2.3 0.1 0.2 0.5-0.1 1-0.8zM602.3 537h0.6-0.6zM598.8 538.1s0.1 0 0 0l0.9-0.6-0.9 0.6zM805 533.9c0.6-0.3 1.2-0.7 1.8-1-1.2 0.4-1.9 0.9-1.8 1zM613.2 537.5c0.3 0.2 0.6 0.4 0.8 0.6h0.1l-0.9-0.6zM615.9 539.1c-0.3-0.2-1-0.7-1.8-1 0.6 0.3 1.2 0.7 1.8 1zM752.6 674.6c0.1-0.1 0.3-0.2 0.4-0.3-0.1 0.1-0.2 0.2-0.4 0.3 0.1 0 0.1 0 0 0zM806.8 532.9s0.1-0.1 0 0l0.9-0.6-0.9 0.6zM823.9 533.9c-0.3-0.2-1-0.7-1.8-1 0.6 0.3 1.2 0.6 1.8 1zM597 539.1c0.6-0.3 1.2-0.7 1.8-1-1.2 0.4-1.9 0.9-1.8 1z" p-id="9079"></path><path d="M707 353.1c-126.7 0-229.4 102.7-229.4 229.4S580.3 811.9 707 811.9s229.4-102.7 229.4-229.4S833.7 353.1 707 353.1z m-93 185c-0.1 0-0.2-0.1-0.3-0.1-1.1-0.3-2.3-0.6-3.4-0.9-1 0.2-2.9-0.3-3.8-0.3h-1c0.6 0.1 0.1 0.3-2.6 0.2-1.2 0.3-2.5 0.6-3.7 1-0.1 0-0.2 0.1-0.3 0.1-1.3 0.8-1.8 1.1-1.9 1-1.4 0.7-2.8 1.4-4.1 2.1h-0.1c-0.8 0.7-1.5 1.4-2.3 2.1-0.7 0.7-1.4 1.5-2.1 2.3v0.1c-1 1.8-2 4.2-3.2 6 0 0.1-0.1 0.2-0.1 0.3-0.4 1.1-0.6 2.3-0.9 3.5 0.2 1.1-0.3 2.9-0.3 3.8-0.2 12.9-10.4 22.4-23 23-12.3 0.6-23.2-11-23-23 0.6-37.3 30.9-68.5 68.5-68.5 37.7 0 68 31.3 68.5 68.5 0.2 12.9-10.7 22.4-23 23-12.6 0.6-22.8-11-23-23 0-1-0.9-6.3 0-2.6-0.1-0.6-0.3-1.2-0.3-1.4-0.3-1.3-0.7-2.6-1.1-3.9 0-0.1 0-0.2-0.1-0.3l-3-5.4v-0.1c-0.7-0.8-1.4-1.5-2.1-2.3-0.7-0.7-1.5-1.4-2.3-2.1h-0.1c-1.3-0.7-2.8-1.4-4.2-2.2 0.6 0.4 0.2 0.4-1.7-0.9z m166.4 174.1c-25.9 23.8-64.9 30.8-98.3 21.2-31.9-9.1-60-34.9-60.5-69.8-0.2-12.9 10.7-22.4 23-23 12.6-0.6 22.8 11 23 23 0 0.7 0.1 1.5 0.2 2.3 0.1 0.5 0.2 1 0.3 1.4l0.9 3c0 0.1 0.1 0.1 0.1 0.2 0.7 1.2 1.3 2.4 2.1 3.6 0.1 0.1 0.2 0.3 0.4 0.6 0.6 0.6 2 2.4 2.5 2.8 1 1 2.1 2.1 3.2 3 0.2 0.1 0.4 0.3 0.6 0.4 0.9 0.6 1.7 1.2 2.6 1.8 2.3 1.4 4.6 2.7 7.1 3.9l0.6 0.3c1.2 0.4 2.4 0.9 3.6 1.3 2.8 0.9 5.6 1.6 8.4 2.2 0.6 0.1 2.8 0.5 3.7 0.6 0.6 0.1 1.1 0.1 1.4 0.1 3.4 0.3 6.7 0.3 10.1 0.2 1.8-0.1 3.6-0.2 5.4-0.4h0.2c2.8-0.6 5.6-1.1 8.3-1.8 2.6-0.7 5.1-1.8 7.7-2.6l0.6-0.3c1.2-0.6 2.4-1.2 3.6-1.9 1.3-0.8 2.7-1.6 4-2.4 0.3-0.2 0.9-0.6 1.4-1 0.4-0.4 0.9-0.7 1.1-0.9 0.9-0.8 1.8-1.7 2.7-2.6 0.2-0.2 0.4-0.4 0.5-0.6-0.1-0.2 0.5-1.1 2-2.3 0.6-1 1.3-2 1.8-3 0.2-0.3 0.5-1 0.8-1.6 0.1-0.4 0.3-0.7 0.3-0.9 0.3-0.9 0.5-1.7 0.7-2.6 0-0.9 0.2-1.9 0.2-2.8 0.2-12.9 10.4-22.4 23-23 12.3-0.6 23.2 11 23 23-0.5 18.4-8.7 36.1-22.3 48.6zM860 577.1c-12.6 0.6-22.8-11-23-23 0-1-0.9-6.3 0-2.6-0.1-0.6-0.3-1.2-0.3-1.4-0.3-1.3-0.7-2.6-1.1-3.9 0-0.1 0-0.2-0.1-0.3l-3-5.4v-0.1c-0.7-0.8-1.4-1.5-2.1-2.3-0.7-0.7-1.5-1.4-2.3-2.1h-0.1c-1.3-0.7-2.8-1.4-4.2-2.2 0.4 0.3 0 0.3-1.9-1-0.1 0-0.2-0.1-0.3-0.1-1.1-0.3-2.3-0.6-3.4-0.9-1 0.2-2.9-0.3-3.8-0.3h-1c0.6 0.1 0.1 0.3-2.6 0.2-1.2 0.3-2.5 0.6-3.7 1-0.1 0-0.2 0.1-0.3 0.1-1.3 0.8-1.8 1.1-1.9 1-1.4 0.7-2.8 1.4-4.1 2.1h-0.1c-0.8 0.7-1.5 1.4-2.3 2.1-0.7 0.7-1.4 1.5-2.1 2.3v0.1c-1 1.8-2 4.2-3.2 6 0 0.1-0.1 0.2-0.1 0.3-0.4 1.1-0.6 2.3-0.9 3.5 0.2 1.1-0.3 2.9-0.3 3.8-0.2 12.9-10.4 22.4-23 23-12.3 0.6-23.2-11-23-23 0.6-37.3 30.9-68.5 68.5-68.5 37.7 0 68 31.3 68.5 68.5 0.4 13-10.5 22.5-22.8 23.1z" p-id="9080"></path><path d="M821.2 532.3c0.3 0.2 0.6 0.4 0.8 0.6h0.1l-0.9-0.6zM810.3 531.7h0.6c-0.2 0.1-0.4 0.1-0.6 0zM811 531.7c0.7 0 1.5-0.1 2.3-0.1-0.3-0.1-1.2-0.1-2.3 0.1z" p-id="9081"></path></svg>