<?xml version="1.0" standalone="no"?><!DOCTYPE svg PUBLIC "-//W3C//DTD SVG 1.1//EN" "http://www.w3.org/Graphics/SVG/1.1/DTD/svg11.dtd"><svg t="1533371742771" class="icon" style="" viewBox="0 0 1024 1024" version="1.1" xmlns="http://www.w3.org/2000/svg" p-id="4900" xmlns:xlink="http://www.w3.org/1999/xlink" width="200" height="200"><defs><style type="text/css"></style></defs><path d="M512 205.9c168.8 0 306.2 137.4 306.2 306.2S680.8 818.3 512 818.3 205.8 680.9 205.8 512 343.2 205.9 512 205.9m0-117.5C278 88.4 88.3 278 88.3 512S278 935.8 512 935.8 935.7 746 935.7 512 746 88.4 512 88.4z" p-id="4901"></path><path d="M327.9 253.1L224.8 149.9c-20.7-20.7-54.2-20.7-74.9 0s-20.7 54.2 0 74.9L253.1 328c20.6-29 45.9-54.2 74.8-74.9zM770.9 328l103.2-103.2c20.7-20.7 20.7-54.2 0-74.9s-54.2-20.7-74.9 0L696.1 253.1c28.9 20.7 54.2 45.9 74.8 74.9zM565 198.8V53c0-29.2-23.7-53-53-53s-53 23.7-53 53v145.7c17.3-2.9 34.8-5.4 53-5.4s35.7 2.5 53 5.5zM459 823.5V971c0 29.2 23.7 53 53 53s53-23.7 53-53V823.5c-17.3 2.9-34.8 5.4-53 5.4s-35.7-2.4-53-5.4zM695.1 770l104.1 104c10.3 10.3 23.9 15.5 37.4 15.5 13.6 0 27.1-5.2 37.4-15.5 20.7-20.7 20.7-54.2 0-74.9l-104-104c-20.6 29-45.9 54.4-74.9 74.9zM971 459.1H824.5c2.8 17 5.3 34.2 5.3 52 0 18.5-2.4 36.3-5.5 53.9H971c29.2 0 53-23.7 53-53 0-29.2-23.7-52.9-53-52.9zM253.9 695.1l-104 104c-20.7 20.7-20.7 54.2 0 74.9 10.3 10.3 23.9 15.5 37.4 15.5 13.6 0 27.1-5.2 37.4-15.5l104.2-104c-29-20.5-54.3-45.9-75-74.9zM199.5 459.1H53c-29.2 0-53 23.7-53 53 0 29.2 23.7 53 53 53h146.7c-3-17.6-5.5-35.4-5.5-53.9 0-17.9 2.4-35.1 5.3-52.1z" p-id="4902"></path></svg>