<?xml version="1.0" standalone="no"?><!DOCTYPE svg PUBLIC "-//W3C//DTD SVG 1.1//EN" "http://www.w3.org/Graphics/SVG/1.1/DTD/svg11.dtd"><svg t="1534141880703" class="icon" style="" viewBox="0 0 1024 1024" version="1.1" xmlns="http://www.w3.org/2000/svg" p-id="6549" xmlns:xlink="http://www.w3.org/1999/xlink" width="200" height="200"><defs><style type="text/css"></style></defs><path d="M1001.728 979.456h-88.5248V345.856a93.6448 93.6448 0 0 0-60.4672-87.04l-244.3776-91.648v-117.76a22.272 22.272 0 0 0-22.272-22.272h-501.76a22.272 22.272 0 0 0-22.272 22.272V979.456H22.272a22.272 22.272 0 0 0 0 44.544h979.456a22.272 22.272 0 1 0 0-44.544zM106.5472 71.2704h457.2672V979.456H106.5472z m501.76 908.2368V214.528l228.8128 85.76a48.896 48.896 0 0 1 31.5904 45.568V979.456z" fill="#00090F" p-id="6550"></path><path d="M214.1696 160.6656h87.296v87.296H214.1696zM354.56 160.6656H441.856v87.296H354.56zM214.1696 378.9312h87.296v87.296H214.1696zM354.56 378.9312H441.856v87.296H354.56zM214.1696 597.1456h87.296v87.296H214.1696zM354.56 597.1456H441.856v87.296H354.56zM214.1696 815.4112h87.296v87.296H214.1696zM354.56 815.4112H441.856v87.296H354.56z" fill="#00090F" p-id="6551"></path></svg>