<?xml version="1.0" standalone="no"?><!DOCTYPE svg PUBLIC "-//W3C//DTD SVG 1.1//EN" "http://www.w3.org/Graphics/SVG/1.1/DTD/svg11.dtd"><svg t="1529497036483" class="icon" style="" viewBox="0 0 1024 1024" version="1.1" xmlns="http://www.w3.org/2000/svg" p-id="7841" xmlns:xlink="http://www.w3.org/1999/xlink" width="200" height="200"><defs><style type="text/css"></style></defs><path d="M498.259556 959.469288c-123.201973 0-239.036141-47.663556-326.135872-134.164652C85.010651 738.701209 37.058522 623.614054 37.073872 501.159094c0-122.43961 47.986921-237.546208 135.118374-324.119959C259.289929 90.503247 375.123075 42.839691 498.345514 42.839691c123.250068 0 239.069911 47.663556 326.20648 134.200468 179.848111 178.743964 179.825598 469.506187 0 648.183635C737.400075 911.769916 621.516788 959.469288 498.259556 959.469288L498.259556 959.469288 498.259556 959.469288 498.259556 959.469288 498.259556 959.469288 498.259556 959.469288zM498.345514 102.57212c-107.179045 0-207.888747 41.433668-283.663548 116.699885-75.774801 75.249845-117.497041 175.384449-117.497041 281.887089-0.020466 106.513896 41.687448 206.632127 117.426433 281.912671 75.758428 75.232448 176.503946 116.716258 283.648199 116.716258 107.194394 0 207.994148-41.515532 283.782252-116.801193 156.38677-155.382906 156.38677-408.270521 0-563.714825C706.269054 144.005788 605.518419 102.57212 498.345514 102.57212L498.345514 102.57212 498.345514 102.57212 498.345514 102.57212 498.345514 102.57212 498.345514 102.57212zM334.420047 626.241904c0 0 54.047963 85.841064 163.825183 85.841064 109.775172 0 181.762717-85.841064 181.762717-85.841064s40.810474-0.130983 40.790008 42.914392c0 0-70.752414 100.147908-222.552725 100.147908-151.807475 0-201.214744-100.147908-201.214744-100.147908S295.531342 626.241904 334.420047 626.241904L334.420047 626.241904 334.420047 626.241904 334.420047 626.241904 334.420047 626.241904zM364.209514 353.780489c-31.097252 0-56.489572 25.139563-56.489572 56.135508 0 30.961152 25.37697 56.105832 56.489572 56.105832 31.252795 0 56.495712-25.14468 56.495712-56.105832C420.705226 378.921076 395.462309 353.780489 364.209514 353.780489L364.209514 353.780489 364.209514 353.780489 364.209514 353.780489 364.209514 353.780489 364.209514 353.780489zM653.646556 353.780489c-31.147394 0-56.453756 25.139563-56.453756 56.135508 0 30.961152 25.306362 56.105832 56.453756 56.105832 31.218002 0 56.489572-25.14468 56.489572-56.105832C710.136128 378.921076 684.864558 353.780489 653.646556 353.780489L653.646556 353.780489 653.646556 353.780489 653.646556 353.780489 653.646556 353.780489 653.646556 353.780489zM653.646556 353.780489" p-id="7842"></path></svg>