<?xml version="1.0" standalone="no"?><!DOCTYPE svg PUBLIC "-//W3C//DTD SVG 1.1//EN" "http://www.w3.org/Graphics/SVG/1.1/DTD/svg11.dtd"><svg t="1534142256590" class="icon" style="" viewBox="0 0 1024 1024" version="1.1" xmlns="http://www.w3.org/2000/svg" p-id="17149" xmlns:xlink="http://www.w3.org/1999/xlink" width="200" height="200"><defs><style type="text/css"></style></defs><path d="M664.5716 794.170481c-22.205256 0-40.317378-18.009793-40.317378-40.317378 0-22.205256 18.009793-40.317378 40.317378-40.317378 22.205256 0 40.317378 18.009793 40.317378 40.317378C704.888978 776.160688 686.879185 794.170481 664.5716 794.170481zM147.813331 375.954432l0 516.348956L62.164485 892.303388 62.164485 364.493654 62.164485 266.872389l446.356351-145.715599 453.31468 146.841211 0 97.109623 0 527.195763-85.648846 0L876.186669 376.875387 147.813331 375.954432zM578.411112 764.495253 578.411112 764.495253c0 6.651344-5.321075 11.972419-11.972419 11.972419L453.468172 776.467673c-6.651344 0-11.972419-5.321075-11.972419-11.972419l0-33.666034c0-6.651344 5.321075-11.972419 11.972419-11.972419l112.970521 0c6.651344 0 11.972419 5.321075 11.972419 11.972419L578.411112 764.495253zM353.493355 794.170481c-22.205256 0-40.317378-18.009793-40.317378-40.317378 0-22.205256 18.009793-40.317378 40.317378-40.317378 22.205256 0 40.317378 18.009793 40.317378 40.317378C393.708404 776.160688 375.698611 794.170481 353.493355 794.170481zM341.009293 569.969022l17.702808-47.173379 0.204657-1.125612c1.739582-9.516538 5.730389-11.256121 11.563106-18.623763l277.309883 0c5.832717 7.572299 9.516538 9.516538 11.153792 18.521435l18.009793 48.401319L683.604677 596.267413c-1.534926 19.237734-24.558809 34.382332-43.796542 34.382332L378.25682 630.649745c-19.237734 0-42.363945-15.144599-43.796542-34.382332L341.009293 569.969022zM779.588688 585.215949l-53.517738 0c-2.558209 0-4.911762 0.716299-6.958329 1.841911l-24.149495-72.653143c-7.674628-41.340662-36.838213-61.294694-72.550814-61.294694L395.754972 453.110023c-41.033676 0-66.001799 26.810033-72.550814 61.192365l-24.149495 72.960128c-2.148896-1.22794-4.707105-2.148896-7.367643-2.148896l-53.517738 0c-8.18627 0-14.939942 6.651344-14.939942 14.939942l0 12.893375c0 8.18627 6.651344 14.939942 14.939942 14.939942l20.261017 3.479165c-6.344359 12.484061-10.02818 26.810033-10.02818 43.489557l-7.469971 85.751174c0 2.455881 0.204657 5.01409 0.511642 7.572299-0.306985 1.534926-0.511642 3.172179-0.511642 4.809433l0 103.146997c0 14.632957 11.870091 26.605376 26.605376 26.605376l40.624363 0c14.735285 0 26.605376-11.870091 26.605376-26.605376l0-33.154392 349.042071 0 0 33.154392c0 14.632957 11.870091 26.605376 26.605376 26.605376l40.624363 0c14.632957 0 26.605376-11.870091 26.605376-26.605376L777.644449 773.090836c0-1.637254-0.204657-3.274508-0.511642-4.809433 0.306985-2.558209 0.511642-5.116419 0.511642-7.572299l-7.469971-85.751174c0-16.679524-3.683821-31.005496-10.130509-43.591886l19.851704-3.376836c8.18627 0 14.939942-6.651344 14.939942-14.939942l0-12.893375C794.426302 591.867293 787.774958 585.215949 779.588688 585.215949z" p-id="17150"></path></svg>