<?xml version="1.0" standalone="no"?><!DOCTYPE svg PUBLIC "-//W3C//DTD SVG 1.1//EN" "http://www.w3.org/Graphics/SVG/1.1/DTD/svg11.dtd"><svg t="1534141800209" class="icon" style="" viewBox="0 0 1024 1024" version="1.1" xmlns="http://www.w3.org/2000/svg" p-id="3033" xmlns:xlink="http://www.w3.org/1999/xlink" width="200" height="200"><defs><style type="text/css"></style></defs><path d="M413.618319 452.556143c107.934245 0 195.433064-108.070344 195.433064-216.004589 0-107.934245-87.497796-174.860517-195.433064-174.860517-107.934245 0-195.433064 66.926272-195.433064 174.860517C218.186278 344.485799 305.684074 452.556143 413.618319 452.556143zM619.255793 515.204995c-49.573045-36.131919-108.082624-59.60247-171.356716-65.86715l-22.159696 39.71042 41.581024 128.012536-53.701063 110.341061-53.701063-110.341061 41.529859-127.712707-22.252817-39.997969C207.884654 466.382033 71.319325 609.240695 53.481052 789.340539l360.137267 0 223.171826 0c-36.580127-38.377052-59.08263-90.293469-59.08263-147.496286C577.708538 594.441641 593.156368 550.660508 619.255793 515.204995zM800.797475 426.746314c-117.421316 0-212.947973 95.526657-212.947973 212.947973S683.376159 852.642261 800.797475 852.642261s212.947973-95.526657 212.947973-212.947973S918.217768 426.746314 800.797475 426.746314zM800.797475 830.518381c-105.220437 0-190.824093-85.602633-190.824093-190.824093s85.602633-190.824093 190.824093-190.824093 190.824093 85.602633 190.824093 190.824093S906.017912 830.518381 800.797475 830.518381zM759.825318 535.657816l-25.790386-21.065781c-13.882172 21.461801-30.683836 39.675628-50.402947 54.662971 4.418636 11.991102 8.361435 24.140817 11.83249 36.44198C718.65464 585.510224 740.106208 562.161447 759.825318 535.657816zM901.567553 533.288862l-59.157331 0 0-17.507746-31.235398 0 0 17.507746-45.429679 0 0 25.084305 45.429679 0 0 15.376199-56.787354 0 0 25.797549-17.990746-16.802688c-15.138792 24.292266-33.518395 45.905516-55.131645 64.839751 3.471055 11.199063 6.78452 23.500227 9.93835 36.909631 5.836939-5.127787 11.516288-10.450003 17.040095-15.97381l0 80.100316 30.522154 0L738.765677 633.971959c7.339152-9.383718 14.353916-19.200294 21.058618-29.455869l-5.199419-4.731768 56.549947 0 0 14.908548-45.905516 0 0 25.077142 45.905516 0 0 16.096607L757.700935 655.866618l0 25.077142 53.474912 0 0 16.32685-61.994959 0 0 25.084305 61.994959 0 0 26.2652 31.235398 0L842.411245 722.354915l70.989821 0 0-25.084305L842.410222 697.270611l0-16.32685 61.051471 0 0-25.077142L842.410222 655.866618l0-16.096607 59.157331 0 0-39.98569 15.620769 0 0-26.034956L901.567553 573.749366 901.567553 533.288862zM872.226295 614.69287L842.410222 614.69287l0-14.908548 29.816073 0L872.226295 614.69287zM872.226295 573.749366L842.410222 573.749366l0-15.376199 29.816073 0L872.226295 573.749366z" fill="#707070" p-id="3034"></path></svg>