<?xml version="1.0" standalone="no"?><!DOCTYPE svg PUBLIC "-//W3C//DTD SVG 1.1//EN" "http://www.w3.org/Graphics/SVG/1.1/DTD/svg11.dtd"><svg t="1529765352600" class="icon" style="" viewBox="0 0 1024 1024" version="1.1" xmlns="http://www.w3.org/2000/svg" p-id="3173" xmlns:xlink="http://www.w3.org/1999/xlink" width="200" height="200"><defs><style type="text/css"></style></defs><path d="M276.963556 151.637333 126.976 151.637333l0 147.427556 149.987556 0L276.963556 151.637333zM401.038222 30.833778 2.531556 30.833778l0 386.958222 398.506667 0L401.038222 30.833778zM351.715556 369.749333 52.764444 369.749333 52.764444 79.644444l298.951111 0L351.715556 369.749333zM550.968889 249.173333l-75.093333 0 0 72.305778 75.093333 0L550.968889 249.173333zM800 854.528l0-72.305778-75.093333 0 0 72.305778L800 854.528zM550.599111 612.238222l75.093333 0 0-71.936 74.695111 0L700.387556 466.488889l-75.093333 0 0 72.675556-74.723556 0L550.570667 612.238222zM724.906667 660.821333l-74.467556 0 0 72.305778 223.715556 0 0-72.305778-74.183111 0 0-73.187556-75.093333 0L724.878222 660.821333zM874.723556 514.958222l-75.093333 0 0 72.305778 75.093333 0L874.723556 514.958222zM550.968889 54.328889l-75.093333 0 0 145.749333 75.093333 0L550.968889 54.328889zM102.172444 563.2l0-72.476444L27.704889 490.723556 27.704889 563.2 102.172444 563.2zM625.493333 30.833778l0 386.958222L1024 417.792 1024 30.833778 625.493333 30.833778zM973.909333 369.749333l-298.951111 0L674.958222 79.644444l298.951111 0L973.909333 369.749333zM924.131556 926.862222l-49.436444 0 0-71.936-75.093333 0 0 71.936-74.780444 0 0 73.813333 274.318222 0 0-71.168 0.085333 0 0-148.024889-75.093333 0L924.131556 926.862222zM924.131556 732.643556l75.093333 0 0-72.305778-75.093333 0L924.131556 732.643556zM625.294222 926.464l75.093333 0L700.387556 854.186667l-75.093333 0L625.294222 926.464zM899.555556 151.637333l-149.987556 0 0 147.427556 149.987556 0L899.555556 151.637333zM924.131556 563.029333l75.093333 0 0-70.798222-75.093333 0L924.131556 563.029333zM2.474667 1024l398.506667 0L400.981333 637.041778 2.474667 637.041778 2.474667 1024zM52.707556 685.824l298.951111 0L351.658667 975.928889 52.707556 975.928889 52.707556 685.824zM177.123556 564.024889l249.372444 0 0-73.329778L177.123556 490.695111 177.123556 564.024889zM550.968889 781.084444l74.723556 0 0-70.798222L550.968889 710.286222l0-97.934222-75.093333 0 0 386.531556 74.695111 0 0 1.024 75.093333 0 0-72.305778L550.968889 927.601778 550.968889 781.084444zM126.976 904.817778l149.987556 0 0-147.427556L126.976 757.390222 126.976 904.817778zM550.968889 370.090667l-75.349333 0 0 72.305778 75.349333 0L550.968889 370.090667z" p-id="3174"></path></svg>