<?xml version="1.0" standalone="no"?><!DOCTYPE svg PUBLIC "-//W3C//DTD SVG 1.1//EN" "http://www.w3.org/Graphics/SVG/1.1/DTD/svg11.dtd"><svg t="1533371781760" class="icon" style="" viewBox="0 0 1024 1024" version="1.1" xmlns="http://www.w3.org/2000/svg" p-id="5156" xmlns:xlink="http://www.w3.org/1999/xlink" width="200" height="200"><defs><style type="text/css"></style></defs><path d="M511.9 591.7c-21.6 0-39-17.4-39-39V215.2c0-21.6 17.4-39 39-39s39 17.4 39 39v337.5c0 21.5-17.4 39-39 39z" fill="" p-id="5157"></path><path d="M512 667.7m-39 0a39 39 0 1 0 78 0 39 39 0 1 0-78 0Z" fill="" p-id="5158"></path><path d="M863.9 767.7h-30.2V384.5c0-176.5-144.5-321-321-321h-6.4c-173 0-314.6 141.6-314.6 314.6v389.6h-30.6c-53.1-0.1-96.2 43-96.2 96.2s43.1 96.3 96.3 96.3h702.7c53.3 0 96.5-43.3 96.3-96.6-0.2-53-43.2-95.9-96.3-95.9zM255.7 384.5c0-34.5 6.8-68 20.2-99.6 13-30.6 31.6-58.1 55.3-81.8s51.2-42.3 81.8-55.3c31.7-13.5 65.2-20.3 99.7-20.3s68 6.8 99.6 20.2c30.6 13 58.1 31.6 81.8 55.3s42.3 51.2 55.3 81.8c13.4 31.6 20.2 65.1 20.2 99.6v383.2c0 0.1 0 0.1-0.1 0.1H255.8c-0.1 0-0.1 0-0.1-0.1V384.5z m608.6 511.6H161.1c-17.8 0-32.3-14.4-32.3-32.3 0-17.8 14.4-32.3 32.3-32.3h88.6c2 0.2 4.1 0.3 6.1 0.3h513.8c2.1 0 4.1-0.1 6.1-0.3h88.5c17.9 0.1 32.4 14.6 32.4 32.4 0 17.8-14.5 32.2-32.3 32.2z" fill="" p-id="5159"></path></svg>