<?xml version="1.0" standalone="no"?><!DOCTYPE svg PUBLIC "-//W3C//DTD SVG 1.1//EN" "http://www.w3.org/Graphics/SVG/1.1/DTD/svg11.dtd"><svg t="1537492856624" class="icon" style="" viewBox="0 0 1024 1024" version="1.1" xmlns="http://www.w3.org/2000/svg" p-id="1830" xmlns:xlink="http://www.w3.org/1999/xlink" width="200" height="200"><defs><style type="text/css"></style></defs><path d="M826.141164 238.210845c-73.330169-73.335034-170.829652-113.720206-274.539619-113.720206-163.432049 0-308.99041 102.156738-364.783808 255.0604L146.580956 309.294487c-9.307211-16.249914-30.027068-21.879001-46.272117-12.571789-16.248698 9.307211-21.879001 30.023419-12.571789 46.272116l82.823475 144.608422c6.26765 10.937068 17.693675 17.056328 29.452969 17.056328a33.728302 33.728302 0 0 0 16.819148-4.489404l144.608421-82.823476c16.248698-9.303562 21.879001-30.023419 12.57179-46.272116-9.303562-16.249914-30.018553-21.875352-46.272117-12.566924l-77.188307 44.209253c46.067776-126.143605 166.183345-210.416924 301.050332-210.416924 176.699569 0 320.450491 143.753355 320.450491 320.445626 0 176.698353-143.750922 320.450491-320.450491 320.450491-137.157301 0-259.058414-87.149894-303.33578-216.873102-6.053579-17.722866-25.319944-27.188198-43.041595-21.133403-17.72165 6.047498-27.1809 25.318728-21.133402 43.040379C237.743459 795.406526 385.434012 901.005424 551.601545 901.005424c103.709967 0 201.20945-40.385171 274.539619-113.720206 73.335034-73.330169 113.720206-170.828436 113.720206-274.539619 0-103.708751-40.385171-201.203369-113.720206-274.534754z m0 0" fill="" p-id="1831"></path></svg>